<svg width="171" height="46" viewBox="0 0 171 46" fill="none" xmlns="http://www.w3.org/2000/svg">
<path fill-rule="evenodd" clip-rule="evenodd" d="M39.3442 11.7454L19.7288 0.332794L0.113457 11.7454V34.5706L19.7288 45.9831L39.3442 34.5706V11.7454ZM39.3442 34.5706H0.113457L19.7288 0.332794L39.3442 34.5706Z" fill="white"/>
<path d="M60.1431 24.4355C58.5053 24.4355 57.0356 24.1577 55.7342 23.602C54.4327 23.0317 53.3799 22.2494 52.5756 21.255C51.7713 20.246 51.2814 19.0908 51.106 17.7893H54.0013C54.1622 18.6375 54.5132 19.376 55.0542 20.0047C55.5953 20.6335 56.2972 21.1234 57.1599 21.4744C58.0227 21.8107 59.0171 21.9789 60.1431 21.9789C61.4738 21.9789 62.6217 21.7303 63.5868 21.2331C64.5519 20.7359 65.2977 20.034 65.8241 19.1274C66.3506 18.2207 66.6138 17.1459 66.6138 15.903C66.6138 14.66 66.3506 13.5852 65.8241 12.6786C65.2977 11.7719 64.5519 11.07 63.5868 10.5728C62.6217 10.0756 61.4738 9.82705 60.1431 9.82705C59.0317 9.82705 58.0446 10.0025 57.1819 10.3535C56.3191 10.6898 55.6172 11.1724 55.0761 11.8012C54.5351 12.4153 54.1768 13.1538 54.0013 14.0166H51.106C51.2814 12.7005 51.7713 11.5453 52.5756 10.5509C53.3799 9.55653 54.4327 8.7815 55.7342 8.22582C57.0356 7.65552 58.5053 7.37037 60.1431 7.37037C62.0148 7.37037 63.6453 7.72864 65.0345 8.44517C66.4383 9.1617 67.5277 10.1634 68.3028 11.4502C69.0924 12.7224 69.4872 14.2067 69.4872 15.903C69.4872 17.5992 69.0924 19.0908 68.3028 20.3776C67.5277 21.6498 66.4383 22.6442 65.0345 23.3608C63.6453 24.0773 62.0148 24.4355 60.1431 24.4355ZM67.9299 16.9339H57.3354V14.872H67.9299V16.9339ZM74.5096 24.1285V7.67745H77.405V21.6937L76.5276 21.1453L87.5388 7.67745H90.6754L77.0979 24.1285H74.5096ZM82.3403 15.8591L84.3802 13.863L90.9167 24.1285H87.6046L82.3403 15.8591ZM102.523 24.4355C100.651 24.4355 99.0057 24.0773 97.5873 23.3608C96.1688 22.6442 95.0648 21.6498 94.2751 20.3776C93.4855 19.0908 93.0907 17.5992 93.0907 15.903C93.0907 14.2067 93.4855 12.7224 94.2751 11.4502C95.0648 10.1634 96.1688 9.1617 97.5873 8.44517C99.0057 7.72864 100.651 7.37037 102.523 7.37037C104.394 7.37037 106.039 7.72864 107.458 8.44517C108.876 9.1617 109.98 10.1634 110.77 11.4502C111.56 12.7224 111.954 14.2067 111.954 15.903C111.954 17.5992 111.56 19.0908 110.77 20.3776C109.98 21.6498 108.876 22.6442 107.458 23.3608C106.039 24.0773 104.394 24.4355 102.523 24.4355ZM102.523 21.8473C103.853 21.8473 105.001 21.606 105.966 21.1234C106.931 20.6408 107.677 19.9536 108.204 19.0616C108.745 18.1695 109.015 17.1167 109.015 15.903C109.015 14.6892 108.745 13.6364 108.204 12.7444C107.677 11.8524 106.931 11.1651 105.966 10.6825C105.001 10.1999 103.853 9.95866 102.523 9.95866C101.206 9.95866 100.059 10.1999 99.0788 10.6825C98.1137 11.1651 97.3606 11.8524 96.8196 12.7444C96.2931 13.6364 96.0299 14.6892 96.0299 15.903C96.0299 17.1167 96.2931 18.1695 96.8196 19.0616C97.3606 19.9536 98.1137 20.6408 99.0788 21.1234C100.059 21.606 101.206 21.8473 102.523 21.8473ZM121.412 9.01547H124.308V24.1285H121.412V9.01547ZM114.613 7.67745H131.107V10.2219H114.613V7.67745ZM148.637 14.6966V17.1094H137.143V14.6966H148.637ZM139.052 15.903L137.889 23.2511L136.507 21.6279H149.273V24.1285H134.928L136.244 15.903L134.928 7.67745H149.164V10.178H136.507L137.889 8.55484L139.052 15.903ZM162.492 16.3855V14.7185L170.169 24.1285H166.593L160.671 16.6707H161.943L155.999 24.1285H152.511L160.21 14.7624V16.3417L153.06 7.67745H156.657L162.075 14.4553H160.759L166.133 7.67745H169.62L162.492 16.3855Z" fill="white"/>
<path d="M53.5137 31.0913H54.7995V37.8026H53.5137V31.0913ZM50.4941 30.4971H57.8191V31.6271H50.4941V30.4971ZM63.636 30.4971C64.1815 30.4971 64.6523 30.5945 65.0484 30.7894C65.451 30.9842 65.7595 31.2569 65.9738 31.6076C66.1946 31.9517 66.305 32.3511 66.305 32.8057C66.305 33.2602 66.1946 33.6629 65.9738 34.0135C65.7595 34.3577 65.451 34.6272 65.0484 34.822C64.6523 35.0168 64.1815 35.1142 63.636 35.1142H60.3534V34.0038H63.5873C64.0289 34.0038 64.3731 33.8966 64.6198 33.6823C64.8731 33.468 64.9997 33.1758 64.9997 32.8057C64.9997 32.4355 64.8731 32.1433 64.6198 31.929C64.3731 31.7147 64.0289 31.6076 63.5873 31.6076H60.4801L61.0548 30.9647V37.8026H59.769V30.4971H63.636ZM68.3948 36.1272V35.0655H73.4989V36.1272H68.3948ZM71.7846 30.4971L75.2912 37.8026H73.9178L70.7326 30.9842H71.2294L68.0442 37.8026H66.6707L70.1774 30.4971H71.7846ZM77.1557 30.4971H78.4415V37.8026H77.1557V30.4971ZM83.0975 30.4971H84.3833V37.8026H83.0975V30.4971ZM77.8473 33.5557H83.7112V34.6856H77.8473V33.5557ZM94.7002 34.9097C94.6353 35.5071 94.4242 36.0363 94.0671 36.4974C93.7164 36.952 93.2553 37.3059 92.6839 37.5591C92.1124 37.8124 91.4598 37.939 90.726 37.939C89.9078 37.939 89.1902 37.7799 88.5733 37.4617C87.9564 37.1435 87.4759 36.7019 87.1317 36.137C86.7875 35.5655 86.6154 34.9032 86.6154 34.1499C86.6154 33.3966 86.7875 32.7375 87.1317 32.1725C87.4759 31.6011 87.9564 31.1563 88.5733 30.8381C89.1902 30.5199 89.9078 30.3608 90.726 30.3608C91.4598 30.3608 92.1124 30.4874 92.6839 30.7406C93.2553 30.9939 93.7164 31.3478 94.0671 31.8024C94.4242 32.2569 94.6353 32.7862 94.7002 33.3901H93.4047C93.3333 33.0005 93.1774 32.6661 92.9371 32.3868C92.7034 32.1076 92.3982 31.8933 92.0215 31.7439C91.6449 31.5881 91.2098 31.5102 90.7163 31.5102C90.1448 31.5102 89.648 31.6173 89.2259 31.8316C88.8103 32.0459 88.4889 32.3511 88.2616 32.7472C88.0343 33.1434 87.9207 33.6109 87.9207 34.1499C87.9207 34.6889 88.0343 35.1564 88.2616 35.5525C88.4889 35.9487 88.8103 36.2539 89.2259 36.4682C89.648 36.6825 90.1448 36.7896 90.7163 36.7896C91.2098 36.7896 91.6449 36.7149 92.0215 36.5656C92.3982 36.4162 92.7034 36.2019 92.9371 35.9227C93.1774 35.637 93.3333 35.2993 93.4047 34.9097H94.7002ZM97.8245 30.4971H104.429V37.8026H103.143V31.0524L103.727 31.6368H98.5453L99.0907 31.1985C99.1427 31.731 99.1817 32.2342 99.2076 32.7083C99.2336 33.1823 99.2466 33.6271 99.2466 34.0427C99.2466 34.9519 99.1687 35.6922 99.0128 36.2636C98.857 36.8351 98.6134 37.2572 98.2823 37.5299C97.9576 37.7961 97.5322 37.9293 97.0062 37.9293C96.8049 37.9293 96.6069 37.9065 96.4121 37.8611C96.2172 37.8221 96.0419 37.7604 95.8861 37.676V36.5851C96.1588 36.6955 96.4153 36.7506 96.6556 36.7506C97.1361 36.7506 97.4835 36.5234 97.6978 36.0688C97.9186 35.6142 98.029 34.8772 98.029 33.8577C98.029 33.4161 98.0128 32.9128 97.9803 32.3479C97.9478 31.7764 97.8959 31.1595 97.8245 30.4971ZM110.835 37.939C110.004 37.939 109.273 37.7799 108.643 37.4617C108.013 37.1435 107.523 36.7019 107.172 36.137C106.822 35.5655 106.646 34.9032 106.646 34.1499C106.646 33.3966 106.822 32.7375 107.172 32.1725C107.523 31.6011 108.013 31.1563 108.643 30.8381C109.273 30.5199 110.004 30.3608 110.835 30.3608C111.666 30.3608 112.397 30.5199 113.027 30.8381C113.656 31.1563 114.147 31.6011 114.497 32.1725C114.848 32.7375 115.023 33.3966 115.023 34.1499C115.023 34.9032 114.848 35.5655 114.497 36.137C114.147 36.7019 113.656 37.1435 113.027 37.4617C112.397 37.7799 111.666 37.939 110.835 37.939ZM110.835 36.7896C111.426 36.7896 111.936 36.6825 112.364 36.4682C112.793 36.2539 113.124 35.9487 113.358 35.5525C113.598 35.1564 113.718 34.6889 113.718 34.1499C113.718 33.6109 113.598 33.1434 113.358 32.7472C113.124 32.3511 112.793 32.0459 112.364 31.8316C111.936 31.6173 111.426 31.5102 110.835 31.5102C110.25 31.5102 109.741 31.6173 109.306 31.8316C108.877 32.0459 108.543 32.3511 108.302 32.7472C108.069 33.1434 107.952 33.6109 107.952 34.1499C107.952 34.6889 108.069 35.1564 108.302 35.5525C108.543 35.9487 108.877 36.2539 109.306 36.4682C109.741 36.6825 110.25 36.7896 110.835 36.7896ZM122.36 30.4971V31.6368H117.948L118.532 31.0524V37.8026H117.247V30.4971H122.36ZM124.309 37.8026V30.4971H125.555V37.1987L125.117 37.1208L130.211 30.4971H131.887V37.8026H130.64V31.0426L131.078 31.1205L125.945 37.8026H124.309ZM142.205 34.9097C142.14 35.5071 141.929 36.0363 141.572 36.4974C141.221 36.952 140.76 37.3059 140.189 37.5591C139.617 37.8124 138.965 37.939 138.231 37.939C137.413 37.939 136.695 37.7799 136.078 37.4617C135.461 37.1435 134.981 36.7019 134.637 36.137C134.292 35.5655 134.12 34.9032 134.12 34.1499C134.12 33.3966 134.292 32.7375 134.637 32.1725C134.981 31.6011 135.461 31.1563 136.078 30.8381C136.695 30.5199 137.413 30.3608 138.231 30.3608C138.965 30.3608 139.617 30.4874 140.189 30.7406C140.76 30.9939 141.221 31.3478 141.572 31.8024C141.929 32.2569 142.14 32.7862 142.205 33.3901H140.91C140.838 33.0005 140.682 32.6661 140.442 32.3868C140.208 32.1076 139.903 31.8933 139.526 31.7439C139.15 31.5881 138.715 31.5102 138.221 31.5102C137.65 31.5102 137.153 31.6173 136.731 31.8316C136.315 32.0459 135.994 32.3511 135.766 32.7472C135.539 33.1434 135.426 33.6109 135.426 34.1499C135.426 34.6889 135.539 35.1564 135.766 35.5525C135.994 35.9487 136.315 36.2539 136.731 36.4682C137.153 36.6825 137.65 36.7896 138.221 36.7896C138.715 36.7896 139.15 36.7149 139.526 36.5656C139.903 36.4162 140.208 36.2019 140.442 35.9227C140.682 35.637 140.838 35.2993 140.91 34.9097H142.205ZM146.364 31.0913H147.65V37.8026H146.364V31.0913ZM143.344 30.4971H150.669V31.6271H143.344V30.4971ZM152.619 37.8026V30.4971H153.866V37.1987L153.428 37.1208L158.522 30.4971H160.198V37.8026H158.951V31.0426L159.389 31.1205L154.256 37.8026H152.619ZM162.811 37.8026V30.4971H164.097V36.7214L163.707 36.4779L168.597 30.4971H169.99L163.96 37.8026H162.811ZM166.288 34.1304L167.194 33.244L170.097 37.8026H168.626L166.288 34.1304Z" fill="white"/>
</svg>
