<svg width="199" height="54" viewBox="0 0 199 54" fill="none" xmlns="http://www.w3.org/2000/svg">
<path fill-rule="evenodd" clip-rule="evenodd" d="M46.2095 13.3696L23.3249 0.0549316L0.440308 13.3696V39.999L23.3249 53.3137L46.2095 39.999V13.3696ZM46.2095 39.999H0.440308L23.3249 0.0549316L46.2095 39.999Z" fill="#5EC4EC"/>
<path d="M70.4748 28.5082C68.5641 28.5082 66.8495 28.184 65.3311 27.5357C63.8128 26.8704 62.5844 25.9577 61.6461 24.7976C60.7078 23.6204 60.1363 22.2726 59.9316 20.7543H63.3095C63.4972 21.7438 63.9066 22.6053 64.5378 23.3389C65.1691 24.0725 65.988 24.644 66.9945 25.0535C68.0011 25.4458 69.1612 25.642 70.4748 25.642C72.0273 25.642 73.3665 25.352 74.4925 24.772C75.6185 24.1919 76.4886 23.373 77.1028 22.3153C77.7169 21.2575 78.024 20.0036 78.024 18.5535C78.024 17.1034 77.7169 15.8494 77.1028 14.7917C76.4886 13.7339 75.6185 12.915 74.4925 12.335C73.3665 11.7549 72.0273 11.4649 70.4748 11.4649C69.1782 11.4649 68.0267 11.6696 67.0201 12.0791C66.0136 12.4715 65.1947 13.0345 64.5634 13.7681C63.9322 14.4846 63.5142 15.3461 63.3095 16.3527H59.9316C60.1363 14.8173 60.7078 13.4695 61.6461 12.3094C62.5844 11.1493 63.8128 10.2451 65.3311 9.59682C66.8495 8.93147 68.5641 8.59879 70.4748 8.59879C72.6585 8.59879 74.5608 9.01677 76.1815 9.85273C77.8193 10.6887 79.0903 11.8573 79.9945 13.3586C80.9157 14.8429 81.3764 16.5745 81.3764 18.5535C81.3764 20.5325 80.9157 22.2726 79.9945 23.7739C79.0903 25.2582 77.8193 26.4183 76.1815 27.2542C74.5608 28.0902 72.6585 28.5082 70.4748 28.5082ZM79.5594 19.7562H67.1992V17.3507H79.5594V19.7562ZM87.2358 28.1499V8.95706H90.6137V25.3094L89.5901 24.6696L102.437 8.95706H106.096L90.2554 28.1499H87.2358ZM96.3716 18.5023L98.7515 16.1736L106.377 28.1499H102.513L96.3716 18.5023ZM119.918 28.5082C117.734 28.5082 115.815 28.0902 114.16 27.2542C112.505 26.4183 111.217 25.2582 110.296 23.7739C109.374 22.2726 108.914 20.5325 108.914 18.5535C108.914 16.5745 109.374 14.8429 110.296 13.3586C111.217 11.8573 112.505 10.6887 114.16 9.85273C115.815 9.01677 117.734 8.59879 119.918 8.59879C122.101 8.59879 124.021 9.01677 125.675 9.85273C127.33 10.6887 128.618 11.8573 129.54 13.3586C130.461 14.8429 130.921 16.5745 130.921 18.5535C130.921 20.5325 130.461 22.2726 129.54 23.7739C128.618 25.2582 127.33 26.4183 125.675 27.2542C124.021 28.0902 122.101 28.5082 119.918 28.5082ZM119.918 25.4885C121.47 25.4885 122.809 25.207 123.935 24.644C125.061 24.081 125.931 23.2792 126.546 22.2385C127.177 21.1978 127.492 19.9695 127.492 18.5535C127.492 17.1375 127.177 15.9091 126.546 14.8685C125.931 13.8278 125.061 13.0259 123.935 12.463C122.809 11.9 121.47 11.6185 119.918 11.6185C118.382 11.6185 117.043 11.9 115.9 12.463C114.774 13.0259 113.895 13.8278 113.264 14.8685C112.65 15.9091 112.343 17.1375 112.343 18.5535C112.343 19.9695 112.65 21.1978 113.264 22.2385C113.895 23.2792 114.774 24.081 115.9 24.644C117.043 25.207 118.382 25.4885 119.918 25.4885ZM141.956 10.5181H145.334V28.1499H141.956V10.5181ZM134.023 8.95706H153.267V11.9256H134.023V8.95706ZM173.718 17.146V19.961H160.309V17.146H173.718ZM162.535 18.5535L161.179 27.1263L159.566 25.2326H174.46V28.1499H157.724L159.259 18.5535L157.724 8.95706H174.332V11.8744H159.566L161.179 9.98068L162.535 18.5535ZM189.881 19.1165V17.1716L198.838 28.1499H194.667L187.757 19.4491H189.242L182.307 28.1499H178.238L187.22 17.2228V19.0653L178.878 8.95706H183.074L189.395 16.8645H187.86L194.13 8.95706H198.198L189.881 19.1165Z" fill="black"/>
<path d="M62.7406 36.7734H64.2407V44.6033H62.7406V36.7734ZM59.2177 36.0802H67.7635V37.3984H59.2177V36.0802ZM74.55 36.0802C75.1864 36.0802 75.7356 36.1938 76.1978 36.4211C76.6675 36.6484 77.0273 36.9666 77.2774 37.3757C77.5349 37.7772 77.6637 38.2431 77.6637 38.7735C77.6637 39.3038 77.5349 39.7735 77.2774 40.1826C77.0273 40.5842 76.6675 40.8986 76.1978 41.1258C75.7356 41.3531 75.1864 41.4668 74.55 41.4668H70.7203V40.1713H74.4931C75.0083 40.1713 75.4098 40.0463 75.6977 39.7962C75.9932 39.5462 76.1409 39.2053 76.1409 38.7735C76.1409 38.3416 75.9932 38.0007 75.6977 37.7507C75.4098 37.5007 75.0083 37.3757 74.4931 37.3757H70.868L71.5385 36.6257V44.6033H70.0384V36.0802H74.55ZM80.1019 42.6486V41.41H86.0567V42.6486H80.1019ZM84.0566 36.0802L88.1477 44.6033H86.5453L82.8293 36.6484H83.4088L79.6928 44.6033H78.0904L82.1815 36.0802H84.0566ZM90.3229 36.0802H91.823V44.6033H90.3229V36.0802ZM97.255 36.0802H98.7551V44.6033H97.255V36.0802ZM91.1298 39.6485H97.971V40.9668H91.1298V39.6485ZM110.791 41.2281C110.716 41.9251 110.47 42.5426 110.053 43.0805C109.644 43.6108 109.106 44.0237 108.439 44.3192C107.772 44.6146 107.011 44.7624 106.155 44.7624C105.2 44.7624 104.363 44.5768 103.643 44.2055C102.924 43.8343 102.363 43.3191 101.962 42.66C101.56 41.9933 101.359 41.2205 101.359 40.3417C101.359 39.4629 101.56 38.6939 101.962 38.0348C102.363 37.3681 102.924 36.8491 103.643 36.4779C104.363 36.1067 105.2 35.9211 106.155 35.9211C107.011 35.9211 107.772 36.0688 108.439 36.3643C109.106 36.6597 109.644 37.0726 110.053 37.603C110.47 38.1333 110.716 38.7507 110.791 39.4553H109.28C109.197 39.0008 109.015 38.6106 108.735 38.2848C108.462 37.959 108.106 37.709 107.666 37.5348C107.227 37.353 106.719 37.262 106.144 37.262C105.477 37.262 104.897 37.3871 104.405 37.6371C103.92 37.8871 103.545 38.2431 103.28 38.7053C103.015 39.1674 102.882 39.7129 102.882 40.3417C102.882 40.9705 103.015 41.516 103.28 41.9782C103.545 42.4403 103.92 42.7964 104.405 43.0464C104.897 43.2964 105.477 43.4214 106.144 43.4214C106.719 43.4214 107.227 43.3343 107.666 43.16C108.106 42.9858 108.462 42.7358 108.735 42.41C109.015 42.0766 109.197 41.6827 109.28 41.2281H110.791ZM114.436 36.0802H122.141V44.6033H120.641V36.7279L121.323 37.4098H115.277L115.914 36.8984C115.974 37.5196 116.02 38.1068 116.05 38.6598C116.08 39.2129 116.096 39.7318 116.096 40.2167C116.096 41.2774 116.005 42.141 115.823 42.8077C115.641 43.4744 115.357 43.9669 114.971 44.2851C114.592 44.5957 114.096 44.751 113.482 44.751C113.247 44.751 113.016 44.7245 112.789 44.6715C112.561 44.626 112.357 44.554 112.175 44.4555V43.1828C112.493 43.3115 112.792 43.3759 113.073 43.3759C113.633 43.3759 114.039 43.1108 114.289 42.5805C114.546 42.0501 114.675 41.1902 114.675 40.0008C114.675 39.4856 114.656 38.8985 114.618 38.2394C114.58 37.5727 114.52 36.8529 114.436 36.0802ZM129.615 44.7624C128.646 44.7624 127.793 44.5768 127.058 44.2055C126.323 43.8343 125.751 43.3191 125.342 42.66C124.933 41.9933 124.729 41.2205 124.729 40.3417C124.729 39.4629 124.933 38.6939 125.342 38.0348C125.751 37.3681 126.323 36.8491 127.058 36.4779C127.793 36.1067 128.646 35.9211 129.615 35.9211C130.585 35.9211 131.437 36.1067 132.172 36.4779C132.907 36.8491 133.479 37.3681 133.888 38.0348C134.297 38.6939 134.502 39.4629 134.502 40.3417C134.502 41.2205 134.297 41.9933 133.888 42.66C133.479 43.3191 132.907 43.8343 132.172 44.2055C131.437 44.5768 130.585 44.7624 129.615 44.7624ZM129.615 43.4214C130.305 43.4214 130.899 43.2964 131.399 43.0464C131.899 42.7964 132.286 42.4403 132.559 41.9782C132.839 41.516 132.979 40.9705 132.979 40.3417C132.979 39.7129 132.839 39.1674 132.559 38.7053C132.286 38.2431 131.899 37.8871 131.399 37.6371C130.899 37.3871 130.305 37.262 129.615 37.262C128.933 37.262 128.339 37.3871 127.831 37.6371C127.331 37.8871 126.941 38.2431 126.661 38.7053C126.388 39.1674 126.251 39.7129 126.251 40.3417C126.251 40.9705 126.388 41.516 126.661 41.9782C126.941 42.4403 127.331 42.7964 127.831 43.0464C128.339 43.2964 128.933 43.4214 129.615 43.4214ZM143.062 36.0802V37.4098H137.914L138.596 36.7279V44.6033H137.096V36.0802H143.062ZM145.335 44.6033V36.0802H146.789V43.8987L146.278 43.8078L152.221 36.0802H154.176V44.6033H152.721V36.7166L153.233 36.8075L147.244 44.6033H145.335ZM166.214 41.2281C166.138 41.9251 165.892 42.5426 165.475 43.0805C165.066 43.6108 164.528 44.0237 163.861 44.3192C163.195 44.6146 162.433 44.7624 161.577 44.7624C160.623 44.7624 159.785 44.5768 159.066 44.2055C158.346 43.8343 157.785 43.3191 157.384 42.66C156.982 41.9933 156.782 41.2205 156.782 40.3417C156.782 39.4629 156.982 38.6939 157.384 38.0348C157.785 37.3681 158.346 36.8491 159.066 36.4779C159.785 36.1067 160.623 35.9211 161.577 35.9211C162.433 35.9211 163.195 36.0688 163.861 36.3643C164.528 36.6597 165.066 37.0726 165.475 37.603C165.892 38.1333 166.138 38.7507 166.214 39.4553H164.702C164.619 39.0008 164.437 38.6106 164.157 38.2848C163.884 37.959 163.528 37.709 163.089 37.5348C162.649 37.353 162.142 37.262 161.566 37.262C160.899 37.262 160.32 37.3871 159.827 37.6371C159.342 37.8871 158.967 38.2431 158.702 38.7053C158.437 39.1674 158.304 39.7129 158.304 40.3417C158.304 40.9705 158.437 41.516 158.702 41.9782C158.967 42.4403 159.342 42.7964 159.827 43.0464C160.32 43.2964 160.899 43.4214 161.566 43.4214C162.142 43.4214 162.649 43.3343 163.089 43.16C163.528 42.9858 163.884 42.7358 164.157 42.41C164.437 42.0766 164.619 41.6827 164.702 41.2281H166.214ZM171.066 36.7734H172.566V44.6033H171.066V36.7734ZM167.543 36.0802H176.089V37.3984H167.543V36.0802ZM178.364 44.6033V36.0802H179.818V43.8987L179.307 43.8078L185.25 36.0802H187.205V44.6033H185.751V36.7166L186.262 36.8075L180.273 44.6033H178.364ZM190.254 44.6033V36.0802H191.754V43.3419L191.299 43.0578L197.004 36.0802H198.629L191.595 44.6033H190.254ZM194.311 40.319L195.368 39.2849L198.754 44.6033H197.038L194.311 40.319Z" fill="black"/>
</svg>
